<?xml version="1.0" encoding="UTF-8" standalone="no"?>
<!DOCTYPE svg PUBLIC "-//W3C//DTD SVG 1.1//EN"
 "http://www.w3.org/Graphics/SVG/1.1/DTD/svg11.dtd">
<!-- Generated by graphviz version 5.0.0 (20220707.1540)
 -->
<!-- Pages: 1 -->
<svg width="175pt" height="188pt"
 viewBox="0.00 0.00 174.60 188.00" xmlns="http://www.w3.org/2000/svg" xmlns:xlink="http://www.w3.org/1999/xlink">
<g id="graph0" class="graph" transform="scale(1 1) rotate(0) translate(4 184)">
<polygon fill="white" stroke="transparent" points="-4,4 -4,-184 170.6,-184 170.6,4 -4,4"/>
<!-- 1 -->
<g id="node1" class="node">
<title>1</title>
<ellipse fill="none" stroke="black" cx="28.6" cy="-90" rx="28.7" ry="18"/>
<text text-anchor="middle" x="28.6" y="-86.3" font-family="Times New Roman,serif" font-size="14.00">f(x1)</text>
</g>
<!-- 2 -->
<g id="node2" class="node">
<title>2</title>
<ellipse fill="none" stroke="black" cx="65.6" cy="-162" rx="27" ry="18"/>
<text text-anchor="middle" x="65.6" y="-158.3" font-family="Times New Roman,serif" font-size="14.00">::</text>
</g>
<!-- 2&#45;&#45;1 -->
<g id="edge1" class="edge">
<title>2&#45;&#45;1</title>
<path fill="none" stroke="black" d="M57.02,-144.76C51.12,-133.62 43.33,-118.87 37.39,-107.63"/>
</g>
<!-- 4 -->
<g id="node4" class="node">
<title>4</title>
<ellipse fill="none" stroke="black" cx="102.6" cy="-90" rx="27" ry="18"/>
<text text-anchor="middle" x="102.6" y="-86.3" font-family="Times New Roman,serif" font-size="14.00">::</text>
</g>
<!-- 2&#45;&#45;4 -->
<g id="edge2" class="edge">
<title>2&#45;&#45;4</title>
<path fill="none" stroke="black" stroke-dasharray="1,5" d="M74.18,-144.76C80.16,-133.46 88.1,-118.44 94.06,-107.15"/>
</g>
<!-- 3 -->
<g id="node3" class="node">
<title>3</title>
<ellipse fill="none" stroke="black" cx="65.6" cy="-18" rx="28.7" ry="18"/>
<text text-anchor="middle" x="65.6" y="-14.3" font-family="Times New Roman,serif" font-size="14.00">f(xn)</text>
</g>
<!-- 4&#45;&#45;3 -->
<g id="edge3" class="edge">
<title>4&#45;&#45;3</title>
<path fill="none" stroke="black" d="M94.02,-72.76C88.12,-61.62 80.33,-46.87 74.39,-35.63"/>
</g>
<!-- 5 -->
<g id="node5" class="node">
<title>5</title>
<ellipse fill="none" stroke="black" cx="139.6" cy="-18" rx="27" ry="18"/>
<text text-anchor="middle" x="139.6" y="-14.3" font-family="Times New Roman,serif" font-size="14.00">Nil</text>
</g>
<!-- 4&#45;&#45;5 -->
<g id="edge4" class="edge">
<title>4&#45;&#45;5</title>
<path fill="none" stroke="black" d="M111.18,-72.76C117.16,-61.46 125.1,-46.44 131.06,-35.15"/>
</g>
</g>
</svg>
