<?xml version="1.0" encoding="UTF-8" standalone="no"?>
<!DOCTYPE svg PUBLIC "-//W3C//DTD SVG 1.1//EN"
 "http://www.w3.org/Graphics/SVG/1.1/DTD/svg11.dtd">
<!-- Generated by graphviz version 5.0.0 (20220707.1540)
 -->
<!-- Pages: 1 -->
<svg width="322pt" height="332pt"
 viewBox="0.00 0.00 321.89 332.00" xmlns="http://www.w3.org/2000/svg" xmlns:xlink="http://www.w3.org/1999/xlink">
<g id="graph0" class="graph" transform="scale(1 1) rotate(0) translate(4 328)">
<polygon fill="white" stroke="transparent" points="-4,4 -4,-328 317.89,-328 317.89,4 -4,4"/>
<!-- 1 -->
<g id="node1" class="node">
<title>1</title>
<ellipse fill="none" stroke="black" cx="113.45" cy="-234" rx="27" ry="18"/>
<text text-anchor="middle" x="113.45" y="-230.3" font-family="Times New Roman,serif" font-size="14.00">1</text>
</g>
<!-- 2 -->
<g id="node2" class="node">
<title>2</title>
<ellipse fill="none" stroke="black" cx="113.45" cy="-162" rx="27" ry="18"/>
<text text-anchor="middle" x="113.45" y="-158.3" font-family="Times New Roman,serif" font-size="14.00">2</text>
</g>
<!-- 1&#45;&gt;2 -->
<g id="edge4" class="edge">
<title>1&#45;&gt;2</title>
<path fill="none" stroke="black" d="M113.45,-215.7C113.45,-207.98 113.45,-198.71 113.45,-190.11"/>
<polygon fill="black" stroke="black" points="116.95,-190.1 113.45,-180.1 109.95,-190.1 116.95,-190.1"/>
</g>
<!-- 6 -->
<g id="node6" class="node">
<title>6</title>
<ellipse fill="none" stroke="black" cx="34.45" cy="-162" rx="34.39" ry="18"/>
<text text-anchor="middle" x="34.45" y="-158.3" font-family="Times New Roman,serif" font-size="14.00">Empty</text>
</g>
<!-- 1&#45;&gt;6 -->
<g id="edge3" class="edge">
<title>1&#45;&gt;6</title>
<path fill="none" stroke="black" d="M97.84,-219.17C86.67,-209.27 71.41,-195.75 58.67,-184.46"/>
<polygon fill="black" stroke="black" points="60.92,-181.78 51.11,-177.77 56.28,-187.02 60.92,-181.78"/>
</g>
<!-- 3 -->
<g id="node3" class="node">
<title>3</title>
<ellipse fill="none" stroke="black" cx="153.45" cy="-90" rx="27" ry="18"/>
<text text-anchor="middle" x="153.45" y="-86.3" font-family="Times New Roman,serif" font-size="14.00">3</text>
</g>
<!-- 2&#45;&gt;3 -->
<g id="edge6" class="edge">
<title>2&#45;&gt;3</title>
<path fill="none" stroke="black" d="M122.72,-144.76C127.62,-136.19 133.74,-125.49 139.22,-115.9"/>
<polygon fill="black" stroke="black" points="142.3,-117.57 144.22,-107.15 136.22,-114.09 142.3,-117.57"/>
</g>
<!-- 7 -->
<g id="node7" class="node">
<title>7</title>
<ellipse fill="none" stroke="black" cx="74.45" cy="-90" rx="34.39" ry="18"/>
<text text-anchor="middle" x="74.45" y="-86.3" font-family="Times New Roman,serif" font-size="14.00">Empty</text>
</g>
<!-- 2&#45;&gt;7 -->
<g id="edge5" class="edge">
<title>2&#45;&gt;7</title>
<path fill="none" stroke="black" d="M104.4,-144.76C99.74,-136.4 93.96,-126.02 88.71,-116.61"/>
<polygon fill="black" stroke="black" points="91.64,-114.67 83.71,-107.63 85.52,-118.07 91.64,-114.67"/>
</g>
<!-- a -->
<g id="node11" class="node">
<title>a</title>
<ellipse fill="none" stroke="black" cx="109.45" cy="-18" rx="34.39" ry="18"/>
<text text-anchor="middle" x="109.45" y="-14.3" font-family="Times New Roman,serif" font-size="14.00">Empty</text>
</g>
<!-- 3&#45;&gt;a -->
<g id="edge7" class="edge">
<title>3&#45;&gt;a</title>
<path fill="none" stroke="black" d="M143.46,-73.12C138.03,-64.47 131.18,-53.58 125.06,-43.83"/>
<polygon fill="black" stroke="black" points="127.98,-41.91 119.7,-35.31 122.06,-45.64 127.98,-41.91"/>
</g>
<!-- b -->
<g id="node12" class="node">
<title>b</title>
<ellipse fill="none" stroke="black" cx="196.45" cy="-18" rx="34.39" ry="18"/>
<text text-anchor="middle" x="196.45" y="-14.3" font-family="Times New Roman,serif" font-size="14.00">Empty</text>
</g>
<!-- 3&#45;&gt;b -->
<g id="edge8" class="edge">
<title>3&#45;&gt;b</title>
<path fill="none" stroke="black" d="M163.2,-73.12C168.52,-64.47 175.21,-53.58 181.19,-43.83"/>
<polygon fill="black" stroke="black" points="184.18,-45.66 186.43,-35.31 178.21,-42 184.18,-45.66"/>
</g>
<!-- 4 -->
<g id="node4" class="node">
<title>4</title>
<ellipse fill="none" stroke="black" cx="152.45" cy="-306" rx="27" ry="18"/>
<text text-anchor="middle" x="152.45" y="-302.3" font-family="Times New Roman,serif" font-size="14.00">4</text>
</g>
<!-- 4&#45;&gt;1 -->
<g id="edge1" class="edge">
<title>4&#45;&gt;1</title>
<path fill="none" stroke="black" d="M143.4,-288.76C138.63,-280.19 132.67,-269.49 127.32,-259.9"/>
<polygon fill="black" stroke="black" points="130.37,-258.18 122.44,-251.15 124.25,-261.59 130.37,-258.18"/>
</g>
<!-- 5 -->
<g id="node5" class="node">
<title>5</title>
<ellipse fill="none" stroke="black" cx="192.45" cy="-234" rx="27" ry="18"/>
<text text-anchor="middle" x="192.45" y="-230.3" font-family="Times New Roman,serif" font-size="14.00">5</text>
</g>
<!-- 4&#45;&gt;5 -->
<g id="edge2" class="edge">
<title>4&#45;&gt;5</title>
<path fill="none" stroke="black" d="M161.72,-288.76C166.62,-280.19 172.74,-269.49 178.22,-259.9"/>
<polygon fill="black" stroke="black" points="181.3,-261.57 183.22,-251.15 175.22,-258.09 181.3,-261.57"/>
</g>
<!-- 9 -->
<g id="node9" class="node">
<title>9</title>
<ellipse fill="none" stroke="black" cx="192.45" cy="-162" rx="34.39" ry="18"/>
<text text-anchor="middle" x="192.45" y="-158.3" font-family="Times New Roman,serif" font-size="14.00">Empty</text>
</g>
<!-- 5&#45;&gt;9 -->
<g id="edge9" class="edge">
<title>5&#45;&gt;9</title>
<path fill="none" stroke="black" d="M192.45,-215.7C192.45,-207.98 192.45,-198.71 192.45,-190.11"/>
<polygon fill="black" stroke="black" points="195.95,-190.1 192.45,-180.1 188.95,-190.1 195.95,-190.1"/>
</g>
<!-- 0 -->
<g id="node10" class="node">
<title>0</title>
<ellipse fill="none" stroke="black" cx="279.45" cy="-162" rx="34.39" ry="18"/>
<text text-anchor="middle" x="279.45" y="-158.3" font-family="Times New Roman,serif" font-size="14.00">Empty</text>
</g>
<!-- 5&#45;&gt;0 -->
<g id="edge10" class="edge">
<title>5&#45;&gt;0</title>
<path fill="none" stroke="black" d="M209.22,-219.5C221.77,-209.41 239.16,-195.41 253.5,-183.88"/>
<polygon fill="black" stroke="black" points="255.93,-186.41 261.53,-177.42 251.54,-180.96 255.93,-186.41"/>
</g>
<!-- 8 -->
<g id="node8" class="node">
<title>8</title>
<ellipse fill="none" stroke="black" cx="231.45" cy="-306" rx="34.39" ry="18"/>
<text text-anchor="middle" x="231.45" y="-302.3" font-family="Times New Roman,serif" font-size="14.00">Empty</text>
</g>
</g>
</svg>
