<?xml version="1.0" encoding="UTF-8" standalone="no"?>
<!DOCTYPE svg PUBLIC "-//W3C//DTD SVG 1.1//EN"
 "http://www.w3.org/Graphics/SVG/1.1/DTD/svg11.dtd">
<!-- Generated by graphviz version 5.0.0 (20220707.1540)
 -->
<!-- Pages: 1 -->
<svg width="228pt" height="260pt"
 viewBox="0.00 0.00 228.45 260.00" xmlns="http://www.w3.org/2000/svg" xmlns:xlink="http://www.w3.org/1999/xlink">
<g id="graph0" class="graph" transform="scale(1 1) rotate(0) translate(4 256)">
<polygon fill="white" stroke="transparent" points="-4,4 -4,-256 224.45,-256 224.45,4 -4,4"/>
<!-- 1 -->
<g id="node1" class="node">
<title>1</title>
<ellipse fill="none" stroke="black" cx="73.45" cy="-234" rx="27" ry="18"/>
<text text-anchor="middle" x="73.45" y="-230.3" font-family="Times New Roman,serif" font-size="14.00">::</text>
</g>
<!-- 2 -->
<g id="node2" class="node">
<title>2</title>
<ellipse fill="none" stroke="black" cx="34.45" cy="-162" rx="34.39" ry="18"/>
<text text-anchor="middle" x="34.45" y="-158.3" font-family="Times New Roman,serif" font-size="14.00">apples</text>
</g>
<!-- 1&#45;&gt;2 -->
<g id="edge1" class="edge">
<title>1&#45;&gt;2</title>
<path fill="none" stroke="black" d="M64.4,-216.76C59.74,-208.4 53.96,-198.02 48.71,-188.61"/>
<polygon fill="black" stroke="black" points="51.64,-186.67 43.71,-179.63 45.52,-190.07 51.64,-186.67"/>
</g>
<!-- 3 -->
<g id="node3" class="node">
<title>3</title>
<ellipse fill="none" stroke="black" cx="113.45" cy="-162" rx="27" ry="18"/>
<text text-anchor="middle" x="113.45" y="-158.3" font-family="Times New Roman,serif" font-size="14.00">::</text>
</g>
<!-- 1&#45;&gt;3 -->
<g id="edge2" class="edge">
<title>1&#45;&gt;3</title>
<path fill="none" stroke="black" d="M82.72,-216.76C87.62,-208.19 93.74,-197.49 99.22,-187.9"/>
<polygon fill="black" stroke="black" points="102.3,-189.57 104.22,-179.15 96.22,-186.09 102.3,-189.57"/>
</g>
<!-- 4 -->
<g id="node4" class="node">
<title>4</title>
<ellipse fill="none" stroke="black" cx="71.45" cy="-90" rx="38.99" ry="18"/>
<text text-anchor="middle" x="71.45" y="-86.3" font-family="Times New Roman,serif" font-size="14.00">oranges</text>
</g>
<!-- 3&#45;&gt;4 -->
<g id="edge3" class="edge">
<title>3&#45;&gt;4</title>
<path fill="none" stroke="black" d="M103.92,-145.12C98.85,-136.68 92.51,-126.1 86.77,-116.55"/>
<polygon fill="black" stroke="black" points="89.67,-114.57 81.53,-107.8 83.67,-118.17 89.67,-114.57"/>
</g>
<!-- 5 -->
<g id="node5" class="node">
<title>5</title>
<ellipse fill="none" stroke="black" cx="155.45" cy="-90" rx="27" ry="18"/>
<text text-anchor="middle" x="155.45" y="-86.3" font-family="Times New Roman,serif" font-size="14.00">::</text>
</g>
<!-- 3&#45;&gt;5 -->
<g id="edge4" class="edge">
<title>3&#45;&gt;5</title>
<path fill="none" stroke="black" d="M122.98,-145.12C128.11,-136.56 134.57,-125.8 140.37,-116.13"/>
<polygon fill="black" stroke="black" points="143.52,-117.68 145.66,-107.31 137.52,-114.08 143.52,-117.68"/>
</g>
<!-- 6 -->
<g id="node6" class="node">
<title>6</title>
<ellipse fill="none" stroke="black" cx="117.45" cy="-18" rx="30.59" ry="18"/>
<text text-anchor="middle" x="117.45" y="-14.3" font-family="Times New Roman,serif" font-size="14.00">pears</text>
</g>
<!-- 5&#45;&gt;6 -->
<g id="edge5" class="edge">
<title>5&#45;&gt;6</title>
<path fill="none" stroke="black" d="M146.63,-72.76C142.09,-64.4 136.46,-54.02 131.35,-44.61"/>
<polygon fill="black" stroke="black" points="134.32,-42.75 126.48,-35.63 128.17,-46.09 134.32,-42.75"/>
</g>
<!-- 7 -->
<g id="node7" class="node">
<title>7</title>
<ellipse fill="none" stroke="black" cx="193.45" cy="-18" rx="27" ry="18"/>
<text text-anchor="middle" x="193.45" y="-14.3" font-family="Times New Roman,serif" font-size="14.00">Nil</text>
</g>
<!-- 5&#45;&gt;7 -->
<g id="edge6" class="edge">
<title>5&#45;&gt;7</title>
<path fill="none" stroke="black" d="M164.26,-72.76C168.86,-64.28 174.6,-53.71 179.77,-44.2"/>
<polygon fill="black" stroke="black" points="182.99,-45.61 184.68,-35.15 176.83,-42.27 182.99,-45.61"/>
</g>
</g>
</svg>
