<?xml version="1.0" encoding="UTF-8" standalone="no"?>
<!DOCTYPE svg PUBLIC "-//W3C//DTD SVG 1.1//EN"
 "http://www.w3.org/Graphics/SVG/1.1/DTD/svg11.dtd">
<!-- Generated by graphviz version 5.0.0 (20220707.1540)
 -->
<!-- Pages: 1 -->
<svg width="512pt" height="476pt"
 viewBox="0.00 0.00 512.00 476.00" xmlns="http://www.w3.org/2000/svg" xmlns:xlink="http://www.w3.org/1999/xlink">
<g id="graph0" class="graph" transform="scale(1 1) rotate(0) translate(4 472)">
<polygon fill="white" stroke="transparent" points="-4,4 -4,-472 508,-472 508,4 -4,4"/>
<!-- 1 -->
<g id="node1" class="node">
<title>1</title>
<ellipse fill="none" stroke="black" cx="171" cy="-450" rx="27" ry="18"/>
<text text-anchor="middle" x="171" y="-446.3" font-family="Times New Roman,serif" font-size="14.00">::</text>
</g>
<!-- 2 -->
<g id="node2" class="node">
<title>2</title>
<ellipse fill="none" stroke="black" cx="99" cy="-378" rx="27" ry="18"/>
<text text-anchor="middle" x="99" y="-374.3" font-family="Times New Roman,serif" font-size="14.00">::</text>
</g>
<!-- 1&#45;&gt;2 -->
<g id="edge1" class="edge">
<title>1&#45;&gt;2</title>
<path fill="none" stroke="black" d="M156.43,-434.83C146.25,-424.94 132.48,-411.55 120.97,-400.36"/>
<polygon fill="black" stroke="black" points="123.41,-397.85 113.8,-393.38 118.53,-402.87 123.41,-397.85"/>
</g>
<!-- 9 -->
<g id="node9" class="node">
<title>9</title>
<ellipse fill="none" stroke="black" cx="207" cy="-378" rx="27" ry="18"/>
<text text-anchor="middle" x="207" y="-374.3" font-family="Times New Roman,serif" font-size="14.00">::</text>
</g>
<!-- 1&#45;&gt;9 -->
<g id="edge8" class="edge">
<title>1&#45;&gt;9</title>
<path fill="none" stroke="black" d="M179.35,-432.76C183.71,-424.28 189.15,-413.71 194.04,-404.2"/>
<polygon fill="black" stroke="black" points="197.23,-405.64 198.7,-395.15 191.01,-402.44 197.23,-405.64"/>
</g>
<!-- 3 -->
<g id="node3" class="node">
<title>3</title>
<ellipse fill="none" stroke="black" cx="27" cy="-306" rx="27" ry="18"/>
<text text-anchor="middle" x="27" y="-302.3" font-family="Times New Roman,serif" font-size="14.00">1</text>
</g>
<!-- 2&#45;&gt;3 -->
<g id="edge2" class="edge">
<title>2&#45;&gt;3</title>
<path fill="none" stroke="black" d="M84.43,-362.83C74.25,-352.94 60.48,-339.55 48.97,-328.36"/>
<polygon fill="black" stroke="black" points="51.41,-325.85 41.8,-321.38 46.53,-330.87 51.41,-325.85"/>
</g>
<!-- 4 -->
<g id="node4" class="node">
<title>4</title>
<ellipse fill="none" stroke="black" cx="99" cy="-306" rx="27" ry="18"/>
<text text-anchor="middle" x="99" y="-302.3" font-family="Times New Roman,serif" font-size="14.00">::</text>
</g>
<!-- 2&#45;&gt;4 -->
<g id="edge3" class="edge">
<title>2&#45;&gt;4</title>
<path fill="none" stroke="black" d="M99,-359.7C99,-351.98 99,-342.71 99,-334.11"/>
<polygon fill="black" stroke="black" points="102.5,-334.1 99,-324.1 95.5,-334.1 102.5,-334.1"/>
</g>
<!-- 5 -->
<g id="node5" class="node">
<title>5</title>
<ellipse fill="none" stroke="black" cx="27" cy="-234" rx="27" ry="18"/>
<text text-anchor="middle" x="27" y="-230.3" font-family="Times New Roman,serif" font-size="14.00">0</text>
</g>
<!-- 4&#45;&gt;5 -->
<g id="edge4" class="edge">
<title>4&#45;&gt;5</title>
<path fill="none" stroke="black" d="M84.43,-290.83C74.25,-280.94 60.48,-267.55 48.97,-256.36"/>
<polygon fill="black" stroke="black" points="51.41,-253.85 41.8,-249.38 46.53,-258.87 51.41,-253.85"/>
</g>
<!-- 6 -->
<g id="node6" class="node">
<title>6</title>
<ellipse fill="none" stroke="black" cx="99" cy="-234" rx="27" ry="18"/>
<text text-anchor="middle" x="99" y="-230.3" font-family="Times New Roman,serif" font-size="14.00">::</text>
</g>
<!-- 4&#45;&gt;6 -->
<g id="edge5" class="edge">
<title>4&#45;&gt;6</title>
<path fill="none" stroke="black" d="M99,-287.7C99,-279.98 99,-270.71 99,-262.11"/>
<polygon fill="black" stroke="black" points="102.5,-262.1 99,-252.1 95.5,-262.1 102.5,-262.1"/>
</g>
<!-- 7 -->
<g id="node7" class="node">
<title>7</title>
<ellipse fill="none" stroke="black" cx="27" cy="-162" rx="27" ry="18"/>
<text text-anchor="middle" x="27" y="-158.3" font-family="Times New Roman,serif" font-size="14.00">0</text>
</g>
<!-- 6&#45;&gt;7 -->
<g id="edge6" class="edge">
<title>6&#45;&gt;7</title>
<path fill="none" stroke="black" d="M84.43,-218.83C74.25,-208.94 60.48,-195.55 48.97,-184.36"/>
<polygon fill="black" stroke="black" points="51.41,-181.85 41.8,-177.38 46.53,-186.87 51.41,-181.85"/>
</g>
<!-- 8 -->
<g id="node8" class="node">
<title>8</title>
<ellipse fill="none" stroke="black" cx="99" cy="-162" rx="27" ry="18"/>
<text text-anchor="middle" x="99" y="-158.3" font-family="Times New Roman,serif" font-size="14.00">Nil</text>
</g>
<!-- 6&#45;&gt;8 -->
<g id="edge7" class="edge">
<title>6&#45;&gt;8</title>
<path fill="none" stroke="black" d="M99,-215.7C99,-207.98 99,-198.71 99,-190.11"/>
<polygon fill="black" stroke="black" points="102.5,-190.1 99,-180.1 95.5,-190.1 102.5,-190.1"/>
</g>
<!-- a -->
<g id="node10" class="node">
<title>a</title>
<ellipse fill="none" stroke="black" cx="207" cy="-306" rx="27" ry="18"/>
<text text-anchor="middle" x="207" y="-302.3" font-family="Times New Roman,serif" font-size="14.00">::</text>
</g>
<!-- 9&#45;&gt;a -->
<g id="edge9" class="edge">
<title>9&#45;&gt;a</title>
<path fill="none" stroke="black" d="M207,-359.7C207,-351.98 207,-342.71 207,-334.11"/>
<polygon fill="black" stroke="black" points="210.5,-334.1 207,-324.1 203.5,-334.1 210.5,-334.1"/>
</g>
<!-- h -->
<g id="node17" class="node">
<title>h</title>
<ellipse fill="none" stroke="black" cx="315" cy="-306" rx="27" ry="18"/>
<text text-anchor="middle" x="315" y="-302.3" font-family="Times New Roman,serif" font-size="14.00">::</text>
</g>
<!-- 9&#45;&gt;h -->
<g id="edge16" class="edge">
<title>9&#45;&gt;h</title>
<path fill="none" stroke="black" d="M225.81,-364.81C243,-353.67 268.62,-337.06 287.99,-324.5"/>
<polygon fill="black" stroke="black" points="289.92,-327.43 296.4,-319.05 286.11,-321.56 289.92,-327.43"/>
</g>
<!-- b -->
<g id="node11" class="node">
<title>b</title>
<ellipse fill="none" stroke="black" cx="171" cy="-234" rx="27" ry="18"/>
<text text-anchor="middle" x="171" y="-230.3" font-family="Times New Roman,serif" font-size="14.00">0</text>
</g>
<!-- a&#45;&gt;b -->
<g id="edge10" class="edge">
<title>a&#45;&gt;b</title>
<path fill="none" stroke="black" d="M198.65,-288.76C194.29,-280.28 188.85,-269.71 183.96,-260.2"/>
<polygon fill="black" stroke="black" points="186.99,-258.44 179.3,-251.15 180.77,-261.64 186.99,-258.44"/>
</g>
<!-- c -->
<g id="node12" class="node">
<title>c</title>
<ellipse fill="none" stroke="black" cx="243" cy="-234" rx="27" ry="18"/>
<text text-anchor="middle" x="243" y="-230.3" font-family="Times New Roman,serif" font-size="14.00">::</text>
</g>
<!-- a&#45;&gt;c -->
<g id="edge11" class="edge">
<title>a&#45;&gt;c</title>
<path fill="none" stroke="black" d="M215.35,-288.76C219.71,-280.28 225.15,-269.71 230.04,-260.2"/>
<polygon fill="black" stroke="black" points="233.23,-261.64 234.7,-251.15 227.01,-258.44 233.23,-261.64"/>
</g>
<!-- d -->
<g id="node13" class="node">
<title>d</title>
<ellipse fill="none" stroke="black" cx="171" cy="-162" rx="27" ry="18"/>
<text text-anchor="middle" x="171" y="-158.3" font-family="Times New Roman,serif" font-size="14.00">1</text>
</g>
<!-- c&#45;&gt;d -->
<g id="edge12" class="edge">
<title>c&#45;&gt;d</title>
<path fill="none" stroke="black" d="M228.43,-218.83C218.25,-208.94 204.48,-195.55 192.97,-184.36"/>
<polygon fill="black" stroke="black" points="195.41,-181.85 185.8,-177.38 190.53,-186.87 195.41,-181.85"/>
</g>
<!-- e -->
<g id="node14" class="node">
<title>e</title>
<ellipse fill="none" stroke="black" cx="243" cy="-162" rx="27" ry="18"/>
<text text-anchor="middle" x="243" y="-158.3" font-family="Times New Roman,serif" font-size="14.00">::</text>
</g>
<!-- c&#45;&gt;e -->
<g id="edge13" class="edge">
<title>c&#45;&gt;e</title>
<path fill="none" stroke="black" d="M243,-215.7C243,-207.98 243,-198.71 243,-190.11"/>
<polygon fill="black" stroke="black" points="246.5,-190.1 243,-180.1 239.5,-190.1 246.5,-190.1"/>
</g>
<!-- f -->
<g id="node15" class="node">
<title>f</title>
<ellipse fill="none" stroke="black" cx="189" cy="-90" rx="27" ry="18"/>
<text text-anchor="middle" x="189" y="-86.3" font-family="Times New Roman,serif" font-size="14.00">0</text>
</g>
<!-- e&#45;&gt;f -->
<g id="edge14" class="edge">
<title>e&#45;&gt;f</title>
<path fill="none" stroke="black" d="M231.02,-145.46C224.02,-136.4 215.06,-124.79 207.21,-114.61"/>
<polygon fill="black" stroke="black" points="209.83,-112.27 200.95,-106.49 204.29,-116.55 209.83,-112.27"/>
</g>
<!-- g -->
<g id="node16" class="node">
<title>g</title>
<ellipse fill="none" stroke="black" cx="261" cy="-90" rx="27" ry="18"/>
<text text-anchor="middle" x="261" y="-86.3" font-family="Times New Roman,serif" font-size="14.00">Nil</text>
</g>
<!-- e&#45;&gt;g -->
<g id="edge15" class="edge">
<title>e&#45;&gt;g</title>
<path fill="none" stroke="black" d="M247.36,-144.05C249.39,-136.14 251.86,-126.54 254.14,-117.69"/>
<polygon fill="black" stroke="black" points="257.58,-118.35 256.68,-107.79 250.8,-116.6 257.58,-118.35"/>
</g>
<!-- i -->
<g id="node18" class="node">
<title>i</title>
<ellipse fill="none" stroke="black" cx="315" cy="-234" rx="27" ry="18"/>
<text text-anchor="middle" x="315" y="-230.3" font-family="Times New Roman,serif" font-size="14.00">::</text>
</g>
<!-- h&#45;&gt;i -->
<g id="edge17" class="edge">
<title>h&#45;&gt;i</title>
<path fill="none" stroke="black" d="M315,-287.7C315,-279.98 315,-270.71 315,-262.11"/>
<polygon fill="black" stroke="black" points="318.5,-262.1 315,-252.1 311.5,-262.1 318.5,-262.1"/>
</g>
<!-- p -->
<g id="node25" class="node">
<title>p</title>
<ellipse fill="none" stroke="black" cx="387" cy="-234" rx="27" ry="18"/>
<text text-anchor="middle" x="387" y="-230.3" font-family="Times New Roman,serif" font-size="14.00">Nil</text>
</g>
<!-- h&#45;&gt;p -->
<g id="edge24" class="edge">
<title>h&#45;&gt;p</title>
<path fill="none" stroke="black" d="M329.57,-290.83C339.75,-280.94 353.52,-267.55 365.03,-256.36"/>
<polygon fill="black" stroke="black" points="367.47,-258.87 372.2,-249.38 362.59,-253.85 367.47,-258.87"/>
</g>
<!-- j -->
<g id="node19" class="node">
<title>j</title>
<ellipse fill="none" stroke="black" cx="315" cy="-162" rx="27" ry="18"/>
<text text-anchor="middle" x="315" y="-158.3" font-family="Times New Roman,serif" font-size="14.00">0</text>
</g>
<!-- i&#45;&gt;j -->
<g id="edge18" class="edge">
<title>i&#45;&gt;j</title>
<path fill="none" stroke="black" d="M315,-215.7C315,-207.98 315,-198.71 315,-190.11"/>
<polygon fill="black" stroke="black" points="318.5,-190.1 315,-180.1 311.5,-190.1 318.5,-190.1"/>
</g>
<!-- k -->
<g id="node20" class="node">
<title>k</title>
<ellipse fill="none" stroke="black" cx="387" cy="-162" rx="27" ry="18"/>
<text text-anchor="middle" x="387" y="-158.3" font-family="Times New Roman,serif" font-size="14.00">::</text>
</g>
<!-- i&#45;&gt;k -->
<g id="edge19" class="edge">
<title>i&#45;&gt;k</title>
<path fill="none" stroke="black" d="M329.57,-218.83C339.75,-208.94 353.52,-195.55 365.03,-184.36"/>
<polygon fill="black" stroke="black" points="367.47,-186.87 372.2,-177.38 362.59,-181.85 367.47,-186.87"/>
</g>
<!-- l -->
<g id="node21" class="node">
<title>l</title>
<ellipse fill="none" stroke="black" cx="369" cy="-90" rx="27" ry="18"/>
<text text-anchor="middle" x="369" y="-86.3" font-family="Times New Roman,serif" font-size="14.00">0</text>
</g>
<!-- k&#45;&gt;l -->
<g id="edge20" class="edge">
<title>k&#45;&gt;l</title>
<path fill="none" stroke="black" d="M382.64,-144.05C380.61,-136.14 378.14,-126.54 375.86,-117.69"/>
<polygon fill="black" stroke="black" points="379.2,-116.6 373.32,-107.79 372.42,-118.35 379.2,-116.6"/>
</g>
<!-- m -->
<g id="node22" class="node">
<title>m</title>
<ellipse fill="none" stroke="black" cx="441" cy="-90" rx="27" ry="18"/>
<text text-anchor="middle" x="441" y="-86.3" font-family="Times New Roman,serif" font-size="14.00">::</text>
</g>
<!-- k&#45;&gt;m -->
<g id="edge21" class="edge">
<title>k&#45;&gt;m</title>
<path fill="none" stroke="black" d="M398.98,-145.46C405.98,-136.4 414.94,-124.79 422.79,-114.61"/>
<polygon fill="black" stroke="black" points="425.71,-116.55 429.05,-106.49 420.17,-112.27 425.71,-116.55"/>
</g>
<!-- n -->
<g id="node23" class="node">
<title>n</title>
<ellipse fill="none" stroke="black" cx="405" cy="-18" rx="27" ry="18"/>
<text text-anchor="middle" x="405" y="-14.3" font-family="Times New Roman,serif" font-size="14.00">1</text>
</g>
<!-- m&#45;&gt;n -->
<g id="edge22" class="edge">
<title>m&#45;&gt;n</title>
<path fill="none" stroke="black" d="M432.65,-72.76C428.29,-64.28 422.85,-53.71 417.96,-44.2"/>
<polygon fill="black" stroke="black" points="420.99,-42.44 413.3,-35.15 414.77,-45.64 420.99,-42.44"/>
</g>
<!-- o -->
<g id="node24" class="node">
<title>o</title>
<ellipse fill="none" stroke="black" cx="477" cy="-18" rx="27" ry="18"/>
<text text-anchor="middle" x="477" y="-14.3" font-family="Times New Roman,serif" font-size="14.00">Nil</text>
</g>
<!-- m&#45;&gt;o -->
<g id="edge23" class="edge">
<title>m&#45;&gt;o</title>
<path fill="none" stroke="black" d="M449.35,-72.76C453.71,-64.28 459.15,-53.71 464.04,-44.2"/>
<polygon fill="black" stroke="black" points="467.23,-45.64 468.7,-35.15 461.01,-42.44 467.23,-45.64"/>
</g>
</g>
</svg>
