<?xml version="1.0" encoding="UTF-8" standalone="no"?>
<!DOCTYPE svg PUBLIC "-//W3C//DTD SVG 1.1//EN"
 "http://www.w3.org/Graphics/SVG/1.1/DTD/svg11.dtd">
<!-- Generated by graphviz version 5.0.0 (20220707.1540)
 -->
<!-- Pages: 1 -->
<svg width="322pt" height="260pt"
 viewBox="0.00 0.00 321.89 260.00" xmlns="http://www.w3.org/2000/svg" xmlns:xlink="http://www.w3.org/1999/xlink">
<g id="graph0" class="graph" transform="scale(1 1) rotate(0) translate(4 256)">
<polygon fill="white" stroke="transparent" points="-4,4 -4,-256 317.89,-256 317.89,4 -4,4"/>
<!-- 1 -->
<g id="node1" class="node">
<title>1</title>
<ellipse fill="none" stroke="black" cx="113.45" cy="-162" rx="27" ry="18"/>
<text text-anchor="middle" x="113.45" y="-158.3" font-family="Times New Roman,serif" font-size="14.00">1</text>
</g>
<!-- 2 -->
<g id="node2" class="node">
<title>2</title>
<ellipse fill="none" stroke="black" cx="113.45" cy="-90" rx="27" ry="18"/>
<text text-anchor="middle" x="113.45" y="-86.3" font-family="Times New Roman,serif" font-size="14.00">2</text>
</g>
<!-- 1&#45;&gt;2 -->
<g id="edge4" class="edge">
<title>1&#45;&gt;2</title>
<path fill="none" stroke="black" d="M113.45,-143.7C113.45,-135.98 113.45,-126.71 113.45,-118.11"/>
<polygon fill="black" stroke="black" points="116.95,-118.1 113.45,-108.1 109.95,-118.1 116.95,-118.1"/>
</g>
<!-- 6 -->
<g id="node5" class="node">
<title>6</title>
<ellipse fill="none" stroke="black" cx="34.45" cy="-90" rx="34.39" ry="18"/>
<text text-anchor="middle" x="34.45" y="-86.3" font-family="Times New Roman,serif" font-size="14.00">Empty</text>
</g>
<!-- 1&#45;&gt;6 -->
<g id="edge3" class="edge">
<title>1&#45;&gt;6</title>
<path fill="none" stroke="black" d="M97.84,-147.17C86.67,-137.27 71.41,-123.75 58.67,-112.46"/>
<polygon fill="black" stroke="black" points="60.92,-109.78 51.11,-105.77 56.28,-115.02 60.92,-109.78"/>
</g>
<!-- 7 -->
<g id="node6" class="node">
<title>7</title>
<ellipse fill="none" stroke="black" cx="70.45" cy="-18" rx="34.39" ry="18"/>
<text text-anchor="middle" x="70.45" y="-14.3" font-family="Times New Roman,serif" font-size="14.00">Empty</text>
</g>
<!-- 2&#45;&gt;7 -->
<g id="edge5" class="edge">
<title>2&#45;&gt;7</title>
<path fill="none" stroke="black" d="M103.69,-73.12C98.38,-64.47 91.69,-53.58 85.7,-43.83"/>
<polygon fill="black" stroke="black" points="88.68,-42 80.46,-35.31 82.72,-45.66 88.68,-42"/>
</g>
<!-- 8 -->
<g id="node7" class="node">
<title>8</title>
<ellipse fill="none" stroke="black" cx="157.45" cy="-18" rx="34.39" ry="18"/>
<text text-anchor="middle" x="157.45" y="-14.3" font-family="Times New Roman,serif" font-size="14.00">Empty</text>
</g>
<!-- 2&#45;&gt;8 -->
<g id="edge6" class="edge">
<title>2&#45;&gt;8</title>
<path fill="none" stroke="black" d="M123.43,-73.12C128.87,-64.47 135.71,-53.58 141.84,-43.83"/>
<polygon fill="black" stroke="black" points="144.84,-45.64 147.2,-35.31 138.91,-41.91 144.84,-45.64"/>
</g>
<!-- 4 -->
<g id="node3" class="node">
<title>4</title>
<ellipse fill="none" stroke="black" cx="152.45" cy="-234" rx="27" ry="18"/>
<text text-anchor="middle" x="152.45" y="-230.3" font-family="Times New Roman,serif" font-size="14.00">4</text>
</g>
<!-- 4&#45;&gt;1 -->
<g id="edge1" class="edge">
<title>4&#45;&gt;1</title>
<path fill="none" stroke="black" d="M143.4,-216.76C138.63,-208.19 132.67,-197.49 127.32,-187.9"/>
<polygon fill="black" stroke="black" points="130.37,-186.18 122.44,-179.15 124.25,-189.59 130.37,-186.18"/>
</g>
<!-- 5 -->
<g id="node4" class="node">
<title>5</title>
<ellipse fill="none" stroke="black" cx="192.45" cy="-162" rx="27" ry="18"/>
<text text-anchor="middle" x="192.45" y="-158.3" font-family="Times New Roman,serif" font-size="14.00">5</text>
</g>
<!-- 4&#45;&gt;5 -->
<g id="edge2" class="edge">
<title>4&#45;&gt;5</title>
<path fill="none" stroke="black" d="M161.72,-216.76C166.62,-208.19 172.74,-197.49 178.22,-187.9"/>
<polygon fill="black" stroke="black" points="181.3,-189.57 183.22,-179.15 175.22,-186.09 181.3,-189.57"/>
</g>
<!-- 9 -->
<g id="node8" class="node">
<title>9</title>
<ellipse fill="none" stroke="black" cx="192.45" cy="-90" rx="34.39" ry="18"/>
<text text-anchor="middle" x="192.45" y="-86.3" font-family="Times New Roman,serif" font-size="14.00">Empty</text>
</g>
<!-- 5&#45;&gt;9 -->
<g id="edge7" class="edge">
<title>5&#45;&gt;9</title>
<path fill="none" stroke="black" d="M192.45,-143.7C192.45,-135.98 192.45,-126.71 192.45,-118.11"/>
<polygon fill="black" stroke="black" points="195.95,-118.1 192.45,-108.1 188.95,-118.1 195.95,-118.1"/>
</g>
<!-- 0 -->
<g id="node9" class="node">
<title>0</title>
<ellipse fill="none" stroke="black" cx="279.45" cy="-90" rx="34.39" ry="18"/>
<text text-anchor="middle" x="279.45" y="-86.3" font-family="Times New Roman,serif" font-size="14.00">Empty</text>
</g>
<!-- 5&#45;&gt;0 -->
<g id="edge8" class="edge">
<title>5&#45;&gt;0</title>
<path fill="none" stroke="black" d="M209.22,-147.5C221.77,-137.41 239.16,-123.41 253.5,-111.88"/>
<polygon fill="black" stroke="black" points="255.93,-114.41 261.53,-105.42 251.54,-108.96 255.93,-114.41"/>
</g>
</g>
</svg>
