<?xml version="1.0" encoding="UTF-8" standalone="no"?>
<!DOCTYPE svg PUBLIC "-//W3C//DTD SVG 1.1//EN"
 "http://www.w3.org/Graphics/SVG/1.1/DTD/svg11.dtd">
<!-- Generated by graphviz version 5.0.0 (20220707.1540)
 -->
<!-- Pages: 1 -->
<svg width="219pt" height="260pt"
 viewBox="0.00 0.00 219.00 260.00" xmlns="http://www.w3.org/2000/svg" xmlns:xlink="http://www.w3.org/1999/xlink">
<g id="graph0" class="graph" transform="scale(1 1) rotate(0) translate(4 256)">
<polygon fill="white" stroke="transparent" points="-4,4 -4,-256 215,-256 215,4 -4,4"/>
<!-- 1 -->
<g id="node1" class="node">
<title>1</title>
<ellipse fill="none" stroke="black" cx="27" cy="-162" rx="27" ry="18"/>
<text text-anchor="middle" x="27" y="-158.3" font-family="Times New Roman,serif" font-size="14.00">1</text>
</g>
<!-- 2 -->
<g id="node2" class="node">
<title>2</title>
<ellipse fill="none" stroke="black" cx="67" cy="-90" rx="27" ry="18"/>
<text text-anchor="middle" x="67" y="-86.3" font-family="Times New Roman,serif" font-size="14.00">2</text>
</g>
<!-- 3 -->
<g id="node3" class="node">
<title>3</title>
<ellipse fill="none" stroke="black" cx="112" cy="-18" rx="27" ry="18"/>
<text text-anchor="middle" x="112" y="-14.3" font-family="Times New Roman,serif" font-size="14.00">3</text>
</g>
<!-- 4 -->
<g id="node4" class="node">
<title>4</title>
<ellipse fill="none" stroke="black" cx="67" cy="-234" rx="36" ry="18"/>
<text text-anchor="middle" x="67" y="-230.3" font-family="Times New Roman,serif" font-size="14.00">CONS</text>
</g>
<!-- 4&#45;&gt;1 -->
<g id="edge1" class="edge">
<title>4&#45;&gt;1</title>
<path fill="none" stroke="black" d="M57.52,-216.41C52.67,-207.92 46.66,-197.41 41.27,-187.96"/>
<polygon fill="black" stroke="black" points="44.14,-185.93 36.14,-178.99 38.06,-189.41 44.14,-185.93"/>
</g>
<!-- 5 -->
<g id="node5" class="node">
<title>5</title>
<ellipse fill="none" stroke="black" cx="108" cy="-162" rx="36" ry="18"/>
<text text-anchor="middle" x="108" y="-158.3" font-family="Times New Roman,serif" font-size="14.00">CONS</text>
</g>
<!-- 4&#45;&gt;5 -->
<g id="edge2" class="edge">
<title>4&#45;&gt;5</title>
<path fill="none" stroke="black" d="M76.72,-216.41C81.62,-208.04 87.67,-197.71 93.14,-188.37"/>
<polygon fill="black" stroke="black" points="96.32,-189.87 98.35,-179.47 90.28,-186.33 96.32,-189.87"/>
</g>
<!-- 5&#45;&gt;2 -->
<g id="edge3" class="edge">
<title>5&#45;&gt;2</title>
<path fill="none" stroke="black" d="M98.28,-144.41C93.26,-135.83 87.03,-125.19 81.45,-115.67"/>
<polygon fill="black" stroke="black" points="84.44,-113.85 76.36,-106.99 78.4,-117.39 84.44,-113.85"/>
</g>
<!-- 6 -->
<g id="node6" class="node">
<title>6</title>
<ellipse fill="none" stroke="black" cx="148" cy="-90" rx="36" ry="18"/>
<text text-anchor="middle" x="148" y="-86.3" font-family="Times New Roman,serif" font-size="14.00">CONS</text>
</g>
<!-- 5&#45;&gt;6 -->
<g id="edge4" class="edge">
<title>5&#45;&gt;6</title>
<path fill="none" stroke="black" d="M117.48,-144.41C122.26,-136.04 128.17,-125.71 133.5,-116.37"/>
<polygon fill="black" stroke="black" points="136.67,-117.89 138.59,-107.47 130.59,-114.42 136.67,-117.89"/>
</g>
<!-- 6&#45;&gt;3 -->
<g id="edge5" class="edge">
<title>6&#45;&gt;3</title>
<path fill="none" stroke="black" d="M139.47,-72.41C135.16,-64.04 129.85,-53.71 125.05,-44.37"/>
<polygon fill="black" stroke="black" points="128.16,-42.76 120.47,-35.47 121.93,-45.96 128.16,-42.76"/>
</g>
<!-- 7 -->
<g id="node7" class="node">
<title>7</title>
<ellipse fill="none" stroke="black" cx="184" cy="-18" rx="27" ry="18"/>
<text text-anchor="middle" x="184" y="-14.3" font-family="Times New Roman,serif" font-size="14.00">NIL</text>
</g>
<!-- 6&#45;&gt;7 -->
<g id="edge6" class="edge">
<title>6&#45;&gt;7</title>
<path fill="none" stroke="black" d="M156.53,-72.41C160.84,-64.04 166.15,-53.71 170.95,-44.37"/>
<polygon fill="black" stroke="black" points="174.07,-45.96 175.53,-35.47 167.84,-42.76 174.07,-45.96"/>
</g>
</g>
</svg>
